<svg viewBox="0 0 320 160" xmlns="http://www.w3.org/2000/svg">
  <defs>
    <linearGradient id="bg" x1="0" y1="0" x2="0.3" y2="1">
      <stop offset="0" stop-color="#33431f"/>
      <stop offset="1" stop-color="#080b07"/>
    </linearGradient>
    <radialGradient id="rot" cx="0.5" cy="0.5" r="0.5">
      <stop offset="0" stop-color="#c2e498"/>
      <stop offset="0.5" stop-color="#688b41"/>
      <stop offset="1" stop-color="#24361b"/>
    </radialGradient>
    <filter id="glow"><feGaussianBlur stdDeviation="2.6"/></filter>
    <g id="bone" fill="#d9d3ba" stroke="#3a3f2c" stroke-width="0.8">
      <rect x="-32" y="-4" width="64" height="8" rx="4"/>
      <circle cx="-32" cy="-5" r="5"/><circle cx="-32" cy="5" r="5"/>
      <circle cx="32" cy="-5" r="5"/><circle cx="32" cy="5" r="5"/>
    </g>
  </defs>
  <rect width="320" height="160" fill="url(#bg)"/>
  <circle cx="160" cy="58" r="52" fill="url(#rot)" opacity="0.42" filter="url(#glow)"/>
  <use href="#bone" transform="translate(160 60) rotate(38)"/>
  <use href="#bone" transform="translate(160 60) rotate(-38)"/>
  <g transform="translate(160 58) scale(1.16) translate(-160 -58)">
    <g stroke="#3a3f2c" stroke-width="0.9">
      <path d="M136 56 C136 32 148 22 160 22 C172 22 184 32 184 56 C184 70 176 77 169 80 L169 92 L151 92 L151 80 C144 77 136 70 136 56 Z" fill="#e6e0c6"/>
      <rect x="150" y="90" width="20" height="10" rx="2.5" fill="#e6e0c6"/>
    </g>
    <ellipse cx="150" cy="52" rx="8" ry="9.5" fill="#0c0f0a"/>
    <ellipse cx="170" cy="52" rx="8" ry="9.5" fill="#0c0f0a"/>
    <ellipse cx="150" cy="52" rx="3.6" ry="4.2" fill="#a6f062"/>
    <ellipse cx="170" cy="52" rx="3.6" ry="4.2" fill="#a6f062"/>
    <path d="M160 58 L154 71 L166 71 Z" fill="#0c0f0a"/>
    <g fill="#0c0f0a"><rect x="151.5" y="92" width="2.8" height="7"/><rect x="158.6" y="92" width="2.8" height="7"/><rect x="165.7" y="92" width="2.8" height="7"/></g>
  </g>
  <rect x="5" y="5" width="310" height="150" rx="8" fill="none" stroke="#a6b47c" stroke-width="2" opacity="0.7"/>
  <rect x="0" y="126" width="320" height="34" fill="#04060a" opacity="0.55"/>
  <text x="160" y="149" text-anchor="middle" font-family="Georgia, serif" font-size="16" font-weight="700" fill="#e2e3bd" letter-spacing="0.5">Carrion Colossus</text>
</svg>
