<svg xmlns="http://www.w3.org/2000/svg" viewBox="0 0 320 160" width="320" height="160">
  <defs>
    <linearGradient id="bg" x1="0" y1="0" x2="0" y2="1">
      <stop offset="0" stop-color="#3a1430"/><stop offset="1" stop-color="#16081a"/>
    </linearGradient>
    <radialGradient id="vig" cx="0.5" cy="0.42" r="0.75">
      <stop offset="0.55" stop-color="#000" stop-opacity="0"/>
      <stop offset="1" stop-color="#000" stop-opacity="0.45"/>
    </radialGradient>
    <linearGradient id="acc" x1="0" y1="0" x2="0" y2="1">
      <stop offset="0" stop-color="#ff6fae"/><stop offset="1" stop-color="#f3e7c4"/>
    </linearGradient>
  </defs>
  <rect width="320" height="160" fill="url(#bg)"/>
  <g fill="none" stroke="#ff6fae" stroke-opacity="0.18">
    <circle cx="160" cy="82" r="62"/><circle cx="160" cy="82" r="78"/>
  </g>
  
    <path d="M86 78 q74 -40 148 0 q-18 16 -74 16 q-56 0 -74 -16 Z" fill="url(#acc)"/>
    <path d="M86 86 q74 44 148 0 q-18 -10 -74 -10 q-56 0 -74 10 Z" fill="url(#acc)"/>
    <g fill="#fff2e0"><polygon points="104,78 112,92 120,78"/><polygon points="128,80 136,98 144,80"/><polygon points="152,82 160,100 168,82"/><polygon points="176,80 184,98 192,80"/><polygon points="200,78 208,92 216,78"/></g>
    <circle cx="160" cy="52" r="7" fill="#fff2e0"/><circle cx="160" cy="52" r="3" fill="#16081a"/>
  <rect width="320" height="160" fill="url(#vig)"/>
  <rect x="4" y="4" width="312" height="152" rx="8" fill="none" stroke="#d9b65a" stroke-opacity="0.5" stroke-width="2"/>
</svg>