<svg xmlns="http://www.w3.org/2000/svg" viewBox="0 0 320 160" width="320" height="160">
  <defs>
    <linearGradient id="bg" x1="0" y1="0" x2="0" y2="1">
      <stop offset="0" stop-color="#4a1f12"/><stop offset="1" stop-color="#23100a"/>
    </linearGradient>
    <radialGradient id="vig" cx="0.5" cy="0.42" r="0.75">
      <stop offset="0.55" stop-color="#000" stop-opacity="0"/>
      <stop offset="1" stop-color="#000" stop-opacity="0.45"/>
    </radialGradient>
    <linearGradient id="acc" x1="0" y1="0" x2="0" y2="1">
      <stop offset="0" stop-color="#ff8a3d"/><stop offset="1" stop-color="#f3e7c4"/>
    </linearGradient>
  </defs>
  <rect width="320" height="160" fill="url(#bg)"/>
  <g fill="none" stroke="#ff8a3d" stroke-opacity="0.18">
    <circle cx="160" cy="82" r="62"/><circle cx="160" cy="82" r="78"/>
  </g>
  
    <path d="M160 24 C188 60 184 86 160 104 C136 86 132 60 160 24 Z" fill="url(#acc)"/>
    <path d="M160 52 C176 74 174 92 160 104 C146 92 144 74 160 52 Z" fill="#ffd9a0"/>
    <circle cx="150" cy="84" r="4" fill="#2a0f08"/><circle cx="170" cy="84" r="4" fill="#2a0f08"/>
    <path d="M132 120 q28 16 56 0" stroke="#d9b65a" stroke-width="3" fill="none"/>
  <rect width="320" height="160" fill="url(#vig)"/>
  <rect x="4" y="4" width="312" height="152" rx="8" fill="none" stroke="#d9b65a" stroke-opacity="0.5" stroke-width="2"/>
</svg>