<svg viewBox="0 0 320 160" xmlns="http://www.w3.org/2000/svg">
  <defs>
    <linearGradient id="bg" x1="0" y1="0" x2="0.35" y2="1">
      <stop offset="0" stop-color="#571620"/>
      <stop offset="1" stop-color="#140708"/>
    </linearGradient>
    <radialGradient id="sun" cx="0.5" cy="0.5" r="0.5">
      <stop offset="0" stop-color="#f7e2a4"/>
      <stop offset="0.5" stop-color="#e35b53"/>
      <stop offset="1" stop-color="#801f24"/>
    </radialGradient>
    <linearGradient id="steel" x1="0" y1="0" x2="1" y2="0">
      <stop offset="0" stop-color="#a7aeb7"/>
      <stop offset="0.5" stop-color="#f2f5f9"/>
      <stop offset="1" stop-color="#a7aeb7"/>
    </linearGradient>
  </defs>
  <rect width="320" height="160" fill="url(#bg)"/>
  <circle cx="160" cy="66" r="42" fill="url(#sun)" opacity="0.92"/>
  <path d="M142 30 Q160 12 178 30 Q160 22 142 30 Z" fill="#e6c874"/>
  <g transform="rotate(26 160 72)">
    <path d="M157 26 L160 22 L163 26 L162 92 L158 92 Z" fill="url(#steel)" stroke="#5b6167" stroke-width="0.5"/>
    <rect x="146" y="91" width="28" height="4.5" rx="2" fill="#e6c874"/>
    <rect x="156.5" y="95.5" width="7" height="24" rx="2" fill="#241f22" stroke="#e6c874" stroke-width="0.6"/>
  </g>
  <g transform="rotate(-26 160 72)">
    <path d="M157 26 L160 22 L163 26 L162 92 L158 92 Z" fill="url(#steel)" stroke="#5b6167" stroke-width="0.5"/>
    <rect x="146" y="91" width="28" height="4.5" rx="2" fill="#e6c874"/>
    <rect x="156.5" y="95.5" width="7" height="24" rx="2" fill="#241f22" stroke="#e6c874" stroke-width="0.6"/>
  </g>
  <rect x="5" y="5" width="310" height="150" rx="8" fill="none" stroke="#e6c874" stroke-width="2" opacity="0.75"/>
  <rect x="0" y="126" width="320" height="34" fill="#0b0405" opacity="0.55"/>
  <text x="160" y="149" text-anchor="middle" font-family="Georgia, serif" font-size="16" font-weight="700" fill="#f0d689" letter-spacing="0.5">Iron Shogun</text>
</svg>
