<svg xmlns="http://www.w3.org/2000/svg" viewBox="0 0 320 160" width="320" height="160">
  <defs>
    <linearGradient id="bg" x1="0" y1="0" x2="0" y2="1">
      <stop offset="0" stop-color="#511808"/><stop offset="1" stop-color="#260a06"/>
    </linearGradient>
    <radialGradient id="vig" cx="0.5" cy="0.42" r="0.75">
      <stop offset="0.55" stop-color="#000" stop-opacity="0"/>
      <stop offset="1" stop-color="#000" stop-opacity="0.45"/>
    </radialGradient>
    <linearGradient id="acc" x1="0" y1="0" x2="0" y2="1">
      <stop offset="0" stop-color="#ff5a2a"/><stop offset="1" stop-color="#f3e7c4"/>
    </linearGradient>
  </defs>
  <rect width="320" height="160" fill="url(#bg)"/>
  <g fill="none" stroke="#ff5a2a" stroke-opacity="0.18">
    <circle cx="160" cy="82" r="62"/><circle cx="160" cy="82" r="78"/>
  </g>
  
    <g stroke="url(#acc)" stroke-width="7" stroke-linecap="round">
      <line x1="160" y1="20" x2="160" y2="46"/><line x1="160" y1="118" x2="160" y2="144"/>
      <line x1="98" y1="82" x2="124" y2="82"/><line x1="196" y1="82" x2="222" y2="82"/>
      <line x1="116" y1="38" x2="134" y2="56"/><line x1="186" y1="108" x2="204" y2="126"/>
      <line x1="204" y1="38" x2="186" y2="56"/><line x1="134" y1="108" x2="116" y2="126"/></g>
    <circle cx="160" cy="82" r="30" fill="url(#acc)"/><circle cx="160" cy="82" r="15" fill="#fff2b0"/>
  <rect width="320" height="160" fill="url(#vig)"/>
  <rect x="4" y="4" width="312" height="152" rx="8" fill="none" stroke="#d9b65a" stroke-opacity="0.5" stroke-width="2"/>
</svg>