<svg xmlns="http://www.w3.org/2000/svg" viewBox="0 0 320 160" width="320" height="160">
  <defs>
    <linearGradient id="bg" x1="0" y1="0" x2="0" y2="1">
      <stop offset="0" stop-color="#1c3550"/><stop offset="1" stop-color="#0c1726"/>
    </linearGradient>
    <radialGradient id="vig" cx="0.5" cy="0.42" r="0.75">
      <stop offset="0.55" stop-color="#000" stop-opacity="0"/>
      <stop offset="1" stop-color="#000" stop-opacity="0.45"/>
    </radialGradient>
    <linearGradient id="acc" x1="0" y1="0" x2="0" y2="1">
      <stop offset="0" stop-color="#8fc1ff"/><stop offset="1" stop-color="#f3e7c4"/>
    </linearGradient>
  </defs>
  <rect width="320" height="160" fill="url(#bg)"/>
  <g fill="none" stroke="#8fc1ff" stroke-opacity="0.18">
    <circle cx="160" cy="82" r="62"/><circle cx="160" cy="82" r="78"/>
  </g>
  
    <path d="M160 60 C110 36 70 56 52 92 C104 80 132 86 160 100 Z" fill="url(#acc)"/>
    <path d="M160 60 C210 36 250 56 268 92 C216 80 188 86 160 100 Z" fill="url(#acc)"/>
    <path d="M150 58 h20 l-4 70 -6 8 -6 -8 Z" fill="#f3e7c4"/>
    <circle cx="160" cy="50" r="9" fill="#f3e7c4"/><polygon points="160,44 172,50 160,56" fill="#d9b65a"/>
  <rect width="320" height="160" fill="url(#vig)"/>
  <rect x="4" y="4" width="312" height="152" rx="8" fill="none" stroke="#d9b65a" stroke-opacity="0.5" stroke-width="2"/>
</svg>