<svg viewBox="0 0 320 160" xmlns="http://www.w3.org/2000/svg">
  <defs>
    <linearGradient id="bg" x1="0" y1="0" x2="0.3" y2="1">
      <stop offset="0" stop-color="#2b3a24"/>
      <stop offset="1" stop-color="#080b07"/>
    </linearGradient>
    <radialGradient id="rot" cx="0.5" cy="0.5" r="0.5">
      <stop offset="0" stop-color="#cdeba6"/>
      <stop offset="0.5" stop-color="#6f9147"/>
      <stop offset="1" stop-color="#22331b"/>
    </radialGradient>
    <filter id="glow"><feGaussianBlur stdDeviation="2.6"/></filter>
  </defs>
  <rect width="320" height="160" fill="url(#bg)"/>
  <circle cx="160" cy="60" r="42" fill="url(#rot)" opacity="0.38" filter="url(#glow)"/>
  <path d="M160 24 C144 44 150 70 160 84 C170 70 176 44 160 24 Z" fill="#5f7d3f" opacity="0.6" filter="url(#glow)"/>
  <path d="M160 28 C148 44 152 66 160 78 C168 66 172 44 160 28 Z" fill="#c8f090"/>
  <ellipse cx="156" cy="52" rx="2.4" ry="3" fill="#0c0f0a" opacity="0.55"/>
  <ellipse cx="164" cy="52" rx="2.4" ry="3" fill="#0c0f0a" opacity="0.55"/>
  <circle cx="160" cy="96" r="4.5" fill="#a6f062" opacity="0.85"/>
  <circle cx="157" cy="108" r="3.2" fill="#a6f062" opacity="0.65"/>
  <circle cx="163" cy="118" r="2.4" fill="#a6f062" opacity="0.5"/>
  <rect x="5" y="5" width="310" height="150" rx="8" fill="none" stroke="#8a8f6a" stroke-width="1.5" opacity="0.6"/>
  <rect x="0" y="126" width="320" height="34" fill="#04060a" opacity="0.55"/>
  <text x="160" y="149" text-anchor="middle" font-family="Georgia, serif" font-size="16" font-weight="700" fill="#dcd6bd" letter-spacing="0.5">Soul Siphon</text>
</svg>
