<svg xmlns="http://www.w3.org/2000/svg" viewBox="0 0 320 160" width="320" height="160">
  <defs>
    <linearGradient id="bg" x1="0" y1="0" x2="0" y2="1">
      <stop offset="0" stop-color="#26203f"/><stop offset="1" stop-color="#100c1f"/>
    </linearGradient>
    <radialGradient id="vig" cx="0.5" cy="0.42" r="0.75">
      <stop offset="0.55" stop-color="#000" stop-opacity="0"/>
      <stop offset="1" stop-color="#000" stop-opacity="0.45"/>
    </radialGradient>
    <linearGradient id="acc" x1="0" y1="0" x2="0" y2="1">
      <stop offset="0" stop-color="#b89cff"/><stop offset="1" stop-color="#f3e7c4"/>
    </linearGradient>
  </defs>
  <rect width="320" height="160" fill="url(#bg)"/>
  <g fill="none" stroke="#b89cff" stroke-opacity="0.18">
    <circle cx="160" cy="82" r="62"/><circle cx="160" cy="82" r="78"/>
  </g>
  
    <path d="M96 96 C120 60 170 52 196 64 L226 50 L214 76 C232 92 224 120 196 120 C176 120 150 116 130 116 C112 116 100 110 96 96 Z" fill="url(#acc)"/>
    <circle cx="206" cy="78" r="5" fill="#1a1230"/>
    <polygon points="150,70 138,104 156,98 146,128 176,84 158,90" fill="#fff2b0"/>
  <rect width="320" height="160" fill="url(#vig)"/>
  <rect x="4" y="4" width="312" height="152" rx="8" fill="none" stroke="#d9b65a" stroke-opacity="0.5" stroke-width="2"/>
</svg>