<svg xmlns="http://www.w3.org/2000/svg" viewBox="0 0 320 160" width="320" height="160">
  <defs>
    <linearGradient id="bg" x1="0" y1="0" x2="0" y2="1">
      <stop offset="0" stop-color="#1f3318"/><stop offset="1" stop-color="#0e1a0b"/>
    </linearGradient>
    <radialGradient id="vig" cx="0.5" cy="0.42" r="0.75">
      <stop offset="0.55" stop-color="#000" stop-opacity="0"/>
      <stop offset="1" stop-color="#000" stop-opacity="0.45"/>
    </radialGradient>
    <linearGradient id="acc" x1="0" y1="0" x2="0" y2="1">
      <stop offset="0" stop-color="#79b85a"/><stop offset="1" stop-color="#f3e7c4"/>
    </linearGradient>
  </defs>
  <rect width="320" height="160" fill="url(#bg)"/>
  <g fill="none" stroke="#79b85a" stroke-opacity="0.18">
    <circle cx="160" cy="82" r="62"/><circle cx="160" cy="82" r="78"/>
  </g>
  
    <rect x="146" y="58" width="28" height="78" rx="10" fill="url(#acc)"/>
    <path d="M146 78 L112 64 M174 78 L208 64 M146 100 L120 110 M174 100 L200 110" stroke="url(#acc)" stroke-width="10" stroke-linecap="round"/>
    <g fill="#f3e7c4"><polygon points="160,30 150,54 170,54"/><polygon points="120,58 110,70 128,72"/><polygon points="200,58 210,70 192,72"/></g>
    <circle cx="153" cy="74" r="3.5" fill="#0e1a0b"/><circle cx="167" cy="74" r="3.5" fill="#0e1a0b"/>
  <rect width="320" height="160" fill="url(#vig)"/>
  <rect x="4" y="4" width="312" height="152" rx="8" fill="none" stroke="#d9b65a" stroke-opacity="0.5" stroke-width="2"/>
</svg>