<svg viewBox="0 0 320 160" xmlns="http://www.w3.org/2000/svg">
  <defs>
    <linearGradient id="bg" x1="0" y1="0" x2="0.3" y2="1">
      <stop offset="0" stop-color="#2b3a24"/>
      <stop offset="1" stop-color="#080b07"/>
    </linearGradient>
    <radialGradient id="rot" cx="0.5" cy="0.5" r="0.5">
      <stop offset="0" stop-color="#b7d38a"/>
      <stop offset="0.5" stop-color="#5f7d3f"/>
      <stop offset="1" stop-color="#22331b"/>
    </radialGradient>
    <filter id="glow"><feGaussianBlur stdDeviation="2.4"/></filter>
  </defs>
  <rect width="320" height="160" fill="url(#bg)"/>
  <circle cx="160" cy="64" r="40" fill="url(#rot)" opacity="0.35" filter="url(#glow)"/>
  <path d="M152 22 L178 22 L163 56 L176 56 L145 116 L156 76 L140 76 Z" fill="#5f7d3f" opacity="0.6" filter="url(#glow)"/>
  <path d="M152 22 L178 22 L163 56 L176 56 L145 116 L156 76 L140 76 Z" fill="#b6f072"/>
  <circle cx="145" cy="120" r="4" fill="#a6f062" opacity="0.9"/>
  <circle cx="152" cy="112" r="2.6" fill="#a6f062" opacity="0.75"/>
  <circle cx="137" cy="112" r="2.2" fill="#a6f062" opacity="0.6"/>
  <rect x="5" y="5" width="310" height="150" rx="8" fill="none" stroke="#8a8f6a" stroke-width="1.5" opacity="0.6"/>
  <rect x="0" y="126" width="320" height="34" fill="#04060a" opacity="0.55"/>
  <text x="160" y="149" text-anchor="middle" font-family="Georgia, serif" font-size="16" font-weight="700" fill="#dcd6bd" letter-spacing="0.5">Withering Touch</text>
</svg>
